# xmcd
#
# Track frame offsets:
#	150
#	33371
#	98970
#	119708
#	141383
#	165569
#	182009
#	207477
#	223945
#	243687
#
# Disc length: 3691 seconds
#
# Revision: 0
# Processed by: cddbd v1.5.2PL0 Copyright (c) Steve Scherf et al.
# Submitted via: EasyCDDAExtractor 2010.6.0.0
#
DISCID=9f0e690a
DTITLE=Ananda Bosanam - AUMBience II-432 Hz
DYEAR=1900
DGENRE=Meditative
TTITLE0=Ousan Zoom-432 Hz
TTITLE1=SIVAgni Classic-432 Hz
TTITLE2=DTM-432 Hz
TTITLE3=BaestaLauding-432 Hz
TTITLE4=Sal-Taru-432 Hz
TTITLE5=Abbh Vam II-432 Hz
TTITLE6=Galactic Dream Scaping-432 Hz
TTITLE7=Dharmata-432 Hz
TTITLE8=Faruna-432 Hz
TTITLE9=Love Star-432 Hz
EXTD=
EXTT0=
EXTT1=
EXTT2=
EXTT3=
EXTT4=
EXTT5=
EXTT6=
EXTT7=
EXTT8=
EXTT9=
PLAYORDER=
